<?xml version="1.0" encoding="utf-8"?>
<!-- Generator: Adobe Illustrator 27.8.1, SVG Export Plug-In . SVG Version: 6.00 Build 0)  -->
<svg version="1.1" xmlns="http://www.w3.org/2000/svg" xmlns:xlink="http://www.w3.org/1999/xlink" x="0px" y="0px"
	 viewBox="0 0 750 500" style="enable-background:new 0 0 750 500;" xml:space="preserve">
<style type="text/css">
	.st0{opacity:0.59;fill:#FF6601;}
</style>
<g id="BACKGROUND">
</g>
<g id="OBJECTS">
	<path class="st0" d="M47.2,109.36c0.58,0.58,0.58,1.52,0,2.1c-0.58,0.58-1.52,0.58-2.1,0c-0.58-0.58-0.58-1.52,0-2.1
		C45.68,108.78,46.62,108.78,47.2,109.36z M55.59,109.36c-0.58,0.58-0.58,1.52,0,2.1c0.58,0.58,1.52,0.58,2.1,0
		c0.58-0.58,0.58-1.52,0-2.1C57.11,108.78,56.17,108.78,55.59,109.36z M66.08,109.36c-0.58,0.58-0.58,1.52,0,2.1
		c0.58,0.58,1.52,0.58,2.1,0c0.58-0.58,0.58-1.52,0-2.1C67.6,108.78,66.66,108.78,66.08,109.36z M76.56,109.36
		c-0.58,0.58-0.58,1.52,0,2.1c0.58,0.58,1.52,0.58,2.1,0c0.58-0.58,0.58-1.52,0-2.1C78.08,108.78,77.14,108.78,76.56,109.36z
		 M45.1,121.24c-0.58,0.58-0.58,1.52,0,2.1c0.58,0.58,1.52,0.58,2.1,0c0.58-0.58,0.58-1.52,0-2.1
		C46.62,120.66,45.68,120.66,45.1,121.24z M55.59,121.24c-0.58,0.58-0.58,1.52,0,2.1c0.58,0.58,1.52,0.58,2.1,0
		c0.58-0.58,0.58-1.52,0-2.1C57.11,120.66,56.17,120.66,55.59,121.24z M66.08,121.24c-0.58,0.58-0.58,1.52,0,2.1
		c0.58,0.58,1.52,0.58,2.1,0c0.58-0.58,0.58-1.52,0-2.1C67.6,120.66,66.66,120.66,66.08,121.24z M76.56,121.24
		c-0.58,0.58-0.58,1.52,0,2.1c0.58,0.58,1.52,0.58,2.1,0c0.58-0.58,0.58-1.52,0-2.1C78.08,120.66,77.14,120.66,76.56,121.24z
		 M45.1,133.13c-0.58,0.58-0.58,1.52,0,2.1c0.58,0.58,1.52,0.58,2.1,0c0.58-0.58,0.58-1.52,0-2.1
		C46.62,132.55,45.68,132.55,45.1,133.13z M55.59,133.13c-0.58,0.58-0.58,1.52,0,2.1c0.58,0.58,1.52,0.58,2.1,0
		c0.58-0.58,0.58-1.52,0-2.1C57.11,132.55,56.17,132.55,55.59,133.13z M66.08,133.13c-0.58,0.58-0.58,1.52,0,2.1
		c0.58,0.58,1.52,0.58,2.1,0c0.58-0.58,0.58-1.52,0-2.1C67.6,132.55,66.66,132.55,66.08,133.13z M76.56,133.13
		c-0.58,0.58-0.58,1.52,0,2.1c0.58,0.58,1.52,0.58,2.1,0c0.58-0.58,0.58-1.52,0-2.1C78.08,132.55,77.14,132.55,76.56,133.13z
		 M45.1,145.01c-0.58,0.58-0.58,1.52,0,2.1c0.58,0.58,1.52,0.58,2.1,0c0.58-0.58,0.58-1.52,0-2.1
		C46.62,144.43,45.68,144.43,45.1,145.01z M55.59,145.01c-0.58,0.58-0.58,1.52,0,2.1c0.58,0.58,1.52,0.58,2.1,0
		c0.58-0.58,0.58-1.52,0-2.1C57.11,144.43,56.17,144.43,55.59,145.01z M66.08,145.01c-0.58,0.58-0.58,1.52,0,2.1
		c0.58,0.58,1.52,0.58,2.1,0c0.58-0.58,0.58-1.52,0-2.1C67.6,144.43,66.66,144.43,66.08,145.01z M76.56,145.01
		c-0.58,0.58-0.58,1.52,0,2.1c0.58,0.58,1.52,0.58,2.1,0c0.58-0.58,0.58-1.52,0-2.1C78.08,144.43,77.14,144.43,76.56,145.01z
		 M45.1,156.9c-0.58,0.58-0.58,1.52,0,2.1c0.58,0.58,1.52,0.58,2.1,0c0.58-0.58,0.58-1.52,0-2.1
		C46.62,156.32,45.68,156.32,45.1,156.9z M55.59,156.9c-0.58,0.58-0.58,1.52,0,2.1c0.58,0.58,1.52,0.58,2.1,0
		c0.58-0.58,0.58-1.52,0-2.1C57.11,156.32,56.17,156.32,55.59,156.9z M66.08,156.9c-0.58,0.58-0.58,1.52,0,2.1
		c0.58,0.58,1.52,0.58,2.1,0c0.58-0.58,0.58-1.52,0-2.1C67.6,156.32,66.66,156.32,66.08,156.9z M76.56,156.9
		c-0.58,0.58-0.58,1.52,0,2.1c0.58,0.58,1.52,0.58,2.1,0c0.58-0.58,0.58-1.52,0-2.1C78.08,156.32,77.14,156.32,76.56,156.9z
		 M45.1,168.78c-0.58,0.58-0.58,1.52,0,2.1c0.58,0.58,1.52,0.58,2.1,0c0.58-0.58,0.58-1.52,0-2.1
		C46.62,168.2,45.68,168.2,45.1,168.78z M55.59,168.78c-0.58,0.58-0.58,1.52,0,2.1c0.58,0.58,1.52,0.58,2.1,0
		c0.58-0.58,0.58-1.52,0-2.1C57.11,168.2,56.17,168.2,55.59,168.78z M66.08,168.78c-0.58,0.58-0.58,1.52,0,2.1
		c0.58,0.58,1.52,0.58,2.1,0c0.58-0.58,0.58-1.52,0-2.1C67.6,168.2,66.66,168.2,66.08,168.78z M76.56,168.78
		c-0.58,0.58-0.58,1.52,0,2.1c0.58,0.58,1.52,0.58,2.1,0c0.58-0.58,0.58-1.52,0-2.1C78.08,168.2,77.14,168.2,76.56,168.78z"/>
	<path class="st0" d="M591.54,305.71c0.58-0.58,1.52-0.58,2.1,0c0.58,0.58,0.58,1.52,0,2.1c-0.58,0.58-1.52,0.58-2.1,0
		C590.96,307.22,590.96,306.28,591.54,305.71z M591.54,297.32c0.58,0.58,1.52,0.58,2.1,0c0.58-0.58,0.58-1.52,0-2.1
		c-0.58-0.58-1.52-0.58-2.1,0C590.96,295.8,590.96,296.74,591.54,297.32z M591.54,286.83c0.58,0.58,1.52,0.58,2.1,0
		c0.58-0.58,0.58-1.52,0-2.1c-0.58-0.58-1.52-0.58-2.1,0C590.96,285.31,590.96,286.25,591.54,286.83z M591.54,276.34
		c0.58,0.58,1.52,0.58,2.1,0c0.58-0.58,0.58-1.52,0-2.1c-0.58-0.58-1.52-0.58-2.1,0C590.96,274.83,590.96,275.77,591.54,276.34z
		 M603.42,307.8c0.58,0.58,1.52,0.58,2.1,0c0.58-0.58,0.58-1.52,0-2.1c-0.58-0.58-1.52-0.58-2.1,0
		C602.84,306.28,602.84,307.22,603.42,307.8z M603.42,297.32c0.58,0.58,1.52,0.58,2.1,0c0.58-0.58,0.58-1.52,0-2.1
		c-0.58-0.58-1.52-0.58-2.1,0C602.84,295.8,602.84,296.74,603.42,297.32z M603.42,286.83c0.58,0.58,1.52,0.58,2.1,0
		c0.58-0.58,0.58-1.52,0-2.1c-0.58-0.58-1.52-0.58-2.1,0C602.84,285.31,602.84,286.25,603.42,286.83z M603.42,276.34
		c0.58,0.58,1.52,0.58,2.1,0c0.58-0.58,0.58-1.52,0-2.1c-0.58-0.58-1.52-0.58-2.1,0C602.84,274.83,602.84,275.77,603.42,276.34z
		 M615.31,307.8c0.58,0.58,1.52,0.58,2.1,0s0.58-1.52,0-2.1c-0.58-0.58-1.52-0.58-2.1,0C614.73,306.28,614.73,307.22,615.31,307.8z
		 M615.31,297.32c0.58,0.58,1.52,0.58,2.1,0c0.58-0.58,0.58-1.52,0-2.1c-0.58-0.58-1.52-0.58-2.1,0
		C614.73,295.8,614.73,296.74,615.31,297.32z M615.31,286.83c0.58,0.58,1.52,0.58,2.1,0c0.58-0.58,0.58-1.52,0-2.1s-1.52-0.58-2.1,0
		C614.73,285.31,614.73,286.25,615.31,286.83z M615.31,276.34c0.58,0.58,1.52,0.58,2.1,0c0.58-0.58,0.58-1.52,0-2.1
		s-1.52-0.58-2.1,0C614.73,274.83,614.73,275.77,615.31,276.34z M627.19,307.8c0.58,0.58,1.52,0.58,2.1,0s0.58-1.52,0-2.1
		c-0.58-0.58-1.52-0.58-2.1,0C626.61,306.28,626.61,307.22,627.19,307.8z M627.19,297.32c0.58,0.58,1.52,0.58,2.1,0
		c0.58-0.58,0.58-1.52,0-2.1c-0.58-0.58-1.52-0.58-2.1,0C626.61,295.8,626.61,296.74,627.19,297.32z M627.19,286.83
		c0.58,0.58,1.52,0.58,2.1,0c0.58-0.58,0.58-1.52,0-2.1s-1.52-0.58-2.1,0S626.61,286.25,627.19,286.83z M627.19,276.34
		c0.58,0.58,1.52,0.58,2.1,0c0.58-0.58,0.58-1.52,0-2.1s-1.52-0.58-2.1,0S626.61,275.77,627.19,276.34z M639.08,307.8
		c0.58,0.58,1.52,0.58,2.1,0s0.58-1.52,0-2.1c-0.58-0.58-1.52-0.58-2.1,0C638.5,306.28,638.5,307.22,639.08,307.8z M639.08,297.32
		c0.58,0.58,1.52,0.58,2.1,0c0.58-0.58,0.58-1.52,0-2.1c-0.58-0.58-1.52-0.58-2.1,0C638.5,295.8,638.5,296.74,639.08,297.32z
		 M639.08,286.83c0.58,0.58,1.52,0.58,2.1,0c0.58-0.58,0.58-1.52,0-2.1s-1.52-0.58-2.1,0C638.5,285.31,638.5,286.25,639.08,286.83z
		 M639.08,276.34c0.58,0.58,1.52,0.58,2.1,0c0.58-0.58,0.58-1.52,0-2.1s-1.52-0.58-2.1,0C638.5,274.83,638.5,275.77,639.08,276.34z
		 M650.96,307.8c0.58,0.58,1.52,0.58,2.1,0c0.58-0.58,0.58-1.52,0-2.1c-0.58-0.58-1.52-0.58-2.1,0
		C650.38,306.28,650.38,307.22,650.96,307.8z M650.96,297.32c0.58,0.58,1.52,0.58,2.1,0c0.58-0.58,0.58-1.52,0-2.1
		c-0.58-0.58-1.52-0.58-2.1,0C650.38,295.8,650.38,296.74,650.96,297.32z M650.96,286.83c0.58,0.58,1.52,0.58,2.1,0
		c0.58-0.58,0.58-1.52,0-2.1c-0.58-0.58-1.52-0.58-2.1,0S650.38,286.25,650.96,286.83z M650.96,276.34c0.58,0.58,1.52,0.58,2.1,0
		c0.58-0.58,0.58-1.52,0-2.1c-0.58-0.58-1.52-0.58-2.1,0S650.38,275.77,650.96,276.34z M661.45,305.71c0.58-0.58,1.52-0.58,2.1,0
		c0.58,0.58,0.58,1.52,0,2.1c-0.58,0.58-1.52,0.58-2.1,0S660.87,306.28,661.45,305.71z M661.45,297.32c0.58,0.58,1.52,0.58,2.1,0
		c0.58-0.58,0.58-1.52,0-2.1c-0.58-0.58-1.52-0.58-2.1,0C660.87,295.8,660.87,296.74,661.45,297.32z M661.45,286.83
		c0.58,0.58,1.52,0.58,2.1,0c0.58-0.58,0.58-1.52,0-2.1c-0.58-0.58-1.52-0.58-2.1,0S660.87,286.25,661.45,286.83z M661.45,276.34
		c0.58,0.58,1.52,0.58,2.1,0c0.58-0.58,0.58-1.52,0-2.1c-0.58-0.58-1.52-0.58-2.1,0S660.87,275.77,661.45,276.34z M673.33,307.8
		c0.58,0.58,1.52,0.58,2.1,0c0.58-0.58,0.58-1.52,0-2.1c-0.58-0.58-1.52-0.58-2.1,0C672.75,306.28,672.75,307.22,673.33,307.8z
		 M673.33,297.32c0.58,0.58,1.52,0.58,2.1,0c0.58-0.58,0.58-1.52,0-2.1c-0.58-0.58-1.52-0.58-2.1,0
		C672.75,295.8,672.75,296.74,673.33,297.32z M673.33,286.83c0.58,0.58,1.52,0.58,2.1,0c0.58-0.58,0.58-1.52,0-2.1
		c-0.58-0.58-1.52-0.58-2.1,0C672.75,285.31,672.75,286.25,673.33,286.83z M673.33,276.34c0.58,0.58,1.52,0.58,2.1,0
		c0.58-0.58,0.58-1.52,0-2.1c-0.58-0.58-1.52-0.58-2.1,0C672.75,274.83,672.75,275.77,673.33,276.34z M685.21,307.8
		c0.58,0.58,1.52,0.58,2.1,0c0.58-0.58,0.58-1.52,0-2.1c-0.58-0.58-1.52-0.58-2.1,0C684.64,306.28,684.64,307.22,685.21,307.8z
		 M685.21,297.32c0.58,0.58,1.52,0.58,2.1,0c0.58-0.58,0.58-1.52,0-2.1c-0.58-0.58-1.52-0.58-2.1,0
		C684.64,295.8,684.64,296.74,685.21,297.32z M685.21,286.83c0.58,0.58,1.52,0.58,2.1,0c0.58-0.58,0.58-1.52,0-2.1
		c-0.58-0.58-1.52-0.58-2.1,0C684.64,285.31,684.64,286.25,685.21,286.83z M685.21,276.34c0.58,0.58,1.52,0.58,2.1,0
		c0.58-0.58,0.58-1.52,0-2.1c-0.58-0.58-1.52-0.58-2.1,0C684.64,274.83,684.64,275.77,685.21,276.34z M697.1,307.8
		c0.58,0.58,1.52,0.58,2.1,0c0.58-0.58,0.58-1.52,0-2.1c-0.58-0.58-1.52-0.58-2.1,0C696.52,306.28,696.52,307.22,697.1,307.8z
		 M697.1,297.32c0.58,0.58,1.52,0.58,2.1,0c0.58-0.58,0.58-1.52,0-2.1c-0.58-0.58-1.52-0.58-2.1,0
		C696.52,295.8,696.52,296.74,697.1,297.32z M697.1,286.83c0.58,0.58,1.52,0.58,2.1,0c0.58-0.58,0.58-1.52,0-2.1
		c-0.58-0.58-1.52-0.58-2.1,0C696.52,285.31,696.52,286.25,697.1,286.83z M697.1,276.34c0.58,0.58,1.52,0.58,2.1,0
		c0.58-0.58,0.58-1.52,0-2.1c-0.58-0.58-1.52-0.58-2.1,0C696.52,274.83,696.52,275.77,697.1,276.34z M708.98,307.8
		c0.58,0.58,1.52,0.58,2.1,0s0.58-1.52,0-2.1c-0.58-0.58-1.52-0.58-2.1,0C708.4,306.28,708.4,307.22,708.98,307.8z M708.98,297.32
		c0.58,0.58,1.52,0.58,2.1,0c0.58-0.58,0.58-1.52,0-2.1c-0.58-0.58-1.52-0.58-2.1,0C708.4,295.8,708.4,296.74,708.98,297.32z
		 M708.98,286.83c0.58,0.58,1.52,0.58,2.1,0c0.58-0.58,0.58-1.52,0-2.1s-1.52-0.58-2.1,0C708.4,285.31,708.4,286.25,708.98,286.83z
		 M708.98,276.34c0.58,0.58,1.52,0.58,2.1,0c0.58-0.58,0.58-1.52,0-2.1s-1.52-0.58-2.1,0C708.4,274.83,708.4,275.77,708.98,276.34z
		 M720.87,307.8c0.58,0.58,1.52,0.58,2.1,0c0.58-0.58,0.58-1.52,0-2.1c-0.58-0.58-1.52-0.58-2.1,0
		C720.29,306.28,720.29,307.22,720.87,307.8z M720.87,297.32c0.58,0.58,1.52,0.58,2.1,0c0.58-0.58,0.58-1.52,0-2.1
		c-0.58-0.58-1.52-0.58-2.1,0C720.29,295.8,720.29,296.74,720.87,297.32z M720.87,286.83c0.58,0.58,1.52,0.58,2.1,0
		c0.58-0.58,0.58-1.52,0-2.1c-0.58-0.58-1.52-0.58-2.1,0S720.29,286.25,720.87,286.83z M720.87,276.34c0.58,0.58,1.52,0.58,2.1,0
		c0.58-0.58,0.58-1.52,0-2.1c-0.58-0.58-1.52-0.58-2.1,0S720.29,275.77,720.87,276.34z M591.54,345.55c0.58-0.58,1.52-0.58,2.1,0
		c0.58,0.58,0.58,1.52,0,2.1c-0.58,0.58-1.52,0.58-2.1,0C590.96,347.07,590.96,346.13,591.54,345.55z M591.54,337.16
		c0.58,0.58,1.52,0.58,2.1,0c0.58-0.58,0.58-1.52,0-2.1c-0.58-0.58-1.52-0.58-2.1,0C590.96,335.65,590.96,336.59,591.54,337.16z
		 M591.54,326.68c0.58,0.58,1.52,0.58,2.1,0c0.58-0.58,0.58-1.52,0-2.1c-0.58-0.58-1.52-0.58-2.1,0
		C590.96,325.16,590.96,326.1,591.54,326.68z M591.54,316.19c0.58,0.58,1.52,0.58,2.1,0c0.58-0.58,0.58-1.52,0-2.1
		c-0.58-0.58-1.52-0.58-2.1,0C590.96,314.67,590.96,315.61,591.54,316.19z M603.42,347.65c0.58,0.58,1.52,0.58,2.1,0
		c0.58-0.58,0.58-1.52,0-2.1c-0.58-0.58-1.52-0.58-2.1,0C602.84,346.13,602.84,347.07,603.42,347.65z M603.42,337.16
		c0.58,0.58,1.52,0.58,2.1,0c0.58-0.58,0.58-1.52,0-2.1c-0.58-0.58-1.52-0.58-2.1,0C602.84,335.65,602.84,336.59,603.42,337.16z
		 M603.42,326.68c0.58,0.58,1.52,0.58,2.1,0c0.58-0.58,0.58-1.52,0-2.1c-0.58-0.58-1.52-0.58-2.1,0
		C602.84,325.16,602.84,326.1,603.42,326.68z M603.42,316.19c0.58,0.58,1.52,0.58,2.1,0c0.58-0.58,0.58-1.52,0-2.1
		c-0.58-0.58-1.52-0.58-2.1,0C602.84,314.67,602.84,315.61,603.42,316.19z M615.31,347.65c0.58,0.58,1.52,0.58,2.1,0
		c0.58-0.58,0.58-1.52,0-2.1c-0.58-0.58-1.52-0.58-2.1,0C614.73,346.13,614.73,347.07,615.31,347.65z M615.31,337.16
		c0.58,0.58,1.52,0.58,2.1,0c0.58-0.58,0.58-1.52,0-2.1s-1.52-0.58-2.1,0C614.73,335.65,614.73,336.59,615.31,337.16z
		 M615.31,326.68c0.58,0.58,1.52,0.58,2.1,0c0.58-0.58,0.58-1.52,0-2.1s-1.52-0.58-2.1,0C614.73,325.16,614.73,326.1,615.31,326.68z
		 M615.31,316.19c0.58,0.58,1.52,0.58,2.1,0c0.58-0.58,0.58-1.52,0-2.1c-0.58-0.58-1.52-0.58-2.1,0
		C614.73,314.67,614.73,315.61,615.31,316.19z M627.19,347.65c0.58,0.58,1.52,0.58,2.1,0c0.58-0.58,0.58-1.52,0-2.1
		c-0.58-0.58-1.52-0.58-2.1,0C626.61,346.13,626.61,347.07,627.19,347.65z M627.19,337.16c0.58,0.58,1.52,0.58,2.1,0
		c0.58-0.58,0.58-1.52,0-2.1s-1.52-0.58-2.1,0S626.61,336.59,627.19,337.16z M627.19,326.68c0.58,0.58,1.52,0.58,2.1,0
		c0.58-0.58,0.58-1.52,0-2.1s-1.52-0.58-2.1,0S626.61,326.1,627.19,326.68z M627.19,316.19c0.58,0.58,1.52,0.58,2.1,0
		c0.58-0.58,0.58-1.52,0-2.1c-0.58-0.58-1.52-0.58-2.1,0C626.61,314.67,626.61,315.61,627.19,316.19z M639.08,347.65
		c0.58,0.58,1.52,0.58,2.1,0c0.58-0.58,0.58-1.52,0-2.1c-0.58-0.58-1.52-0.58-2.1,0C638.5,346.13,638.5,347.07,639.08,347.65z
		 M639.08,337.16c0.58,0.58,1.52,0.58,2.1,0c0.58-0.58,0.58-1.52,0-2.1s-1.52-0.58-2.1,0C638.5,335.65,638.5,336.59,639.08,337.16z
		 M639.08,326.68c0.58,0.58,1.52,0.58,2.1,0c0.58-0.58,0.58-1.52,0-2.1s-1.52-0.58-2.1,0C638.5,325.16,638.5,326.1,639.08,326.68z
		 M639.08,316.19c0.58,0.58,1.52,0.58,2.1,0c0.58-0.58,0.58-1.52,0-2.1c-0.58-0.58-1.52-0.58-2.1,0
		C638.5,314.67,638.5,315.61,639.08,316.19z M650.96,347.65c0.58,0.58,1.52,0.58,2.1,0c0.58-0.58,0.58-1.52,0-2.1
		c-0.58-0.58-1.52-0.58-2.1,0C650.38,346.13,650.38,347.07,650.96,347.65z M650.96,337.16c0.58,0.58,1.52,0.58,2.1,0
		c0.58-0.58,0.58-1.52,0-2.1c-0.58-0.58-1.52-0.58-2.1,0S650.38,336.59,650.96,337.16z M650.96,326.68c0.58,0.58,1.52,0.58,2.1,0
		c0.58-0.58,0.58-1.52,0-2.1c-0.58-0.58-1.52-0.58-2.1,0S650.38,326.1,650.96,326.68z M650.96,316.19c0.58,0.58,1.52,0.58,2.1,0
		c0.58-0.58,0.58-1.52,0-2.1c-0.58-0.58-1.52-0.58-2.1,0C650.38,314.67,650.38,315.61,650.96,316.19z M661.45,345.55
		c0.58-0.58,1.52-0.58,2.1,0c0.58,0.58,0.58,1.52,0,2.1c-0.58,0.58-1.52,0.58-2.1,0C660.87,347.07,660.87,346.13,661.45,345.55z
		 M661.45,337.16c0.58,0.58,1.52,0.58,2.1,0c0.58-0.58,0.58-1.52,0-2.1c-0.58-0.58-1.52-0.58-2.1,0S660.87,336.59,661.45,337.16z
		 M661.45,326.68c0.58,0.58,1.52,0.58,2.1,0c0.58-0.58,0.58-1.52,0-2.1c-0.58-0.58-1.52-0.58-2.1,0S660.87,326.1,661.45,326.68z
		 M661.45,316.19c0.58,0.58,1.52,0.58,2.1,0c0.58-0.58,0.58-1.52,0-2.1c-0.58-0.58-1.52-0.58-2.1,0
		C660.87,314.67,660.87,315.61,661.45,316.19z M673.33,347.65c0.58,0.58,1.52,0.58,2.1,0c0.58-0.58,0.58-1.52,0-2.1
		c-0.58-0.58-1.52-0.58-2.1,0C672.75,346.13,672.75,347.07,673.33,347.65z M673.33,337.16c0.58,0.58,1.52,0.58,2.1,0
		c0.58-0.58,0.58-1.52,0-2.1c-0.58-0.58-1.52-0.58-2.1,0C672.75,335.65,672.75,336.59,673.33,337.16z M673.33,326.68
		c0.58,0.58,1.52,0.58,2.1,0c0.58-0.58,0.58-1.52,0-2.1c-0.58-0.58-1.52-0.58-2.1,0C672.75,325.16,672.75,326.1,673.33,326.68z
		 M673.33,316.19c0.58,0.58,1.52,0.58,2.1,0c0.58-0.58,0.58-1.52,0-2.1c-0.58-0.58-1.52-0.58-2.1,0
		C672.75,314.67,672.75,315.61,673.33,316.19z M685.21,347.65c0.58,0.58,1.52,0.58,2.1,0c0.58-0.58,0.58-1.52,0-2.1
		c-0.58-0.58-1.52-0.58-2.1,0C684.64,346.13,684.64,347.07,685.21,347.65z M685.21,337.16c0.58,0.58,1.52,0.58,2.1,0
		c0.58-0.58,0.58-1.52,0-2.1c-0.58-0.58-1.52-0.58-2.1,0C684.64,335.65,684.64,336.59,685.21,337.16z M685.21,326.68
		c0.58,0.58,1.52,0.58,2.1,0c0.58-0.58,0.58-1.52,0-2.1c-0.58-0.58-1.52-0.58-2.1,0C684.64,325.16,684.64,326.1,685.21,326.68z
		 M685.21,316.19c0.58,0.58,1.52,0.58,2.1,0c0.58-0.58,0.58-1.52,0-2.1c-0.58-0.58-1.52-0.58-2.1,0
		C684.64,314.67,684.64,315.61,685.21,316.19z M697.1,347.65c0.58,0.58,1.52,0.58,2.1,0c0.58-0.58,0.58-1.52,0-2.1
		c-0.58-0.58-1.52-0.58-2.1,0C696.52,346.13,696.52,347.07,697.1,347.65z M697.1,337.16c0.58,0.58,1.52,0.58,2.1,0
		c0.58-0.58,0.58-1.52,0-2.1c-0.58-0.58-1.52-0.58-2.1,0C696.52,335.65,696.52,336.59,697.1,337.16z M697.1,326.68
		c0.58,0.58,1.52,0.58,2.1,0c0.58-0.58,0.58-1.52,0-2.1c-0.58-0.58-1.52-0.58-2.1,0C696.52,325.16,696.52,326.1,697.1,326.68z
		 M697.1,316.19c0.58,0.58,1.52,0.58,2.1,0c0.58-0.58,0.58-1.52,0-2.1c-0.58-0.58-1.52-0.58-2.1,0
		C696.52,314.67,696.52,315.61,697.1,316.19z M708.98,347.65c0.58,0.58,1.52,0.58,2.1,0c0.58-0.58,0.58-1.52,0-2.1
		c-0.58-0.58-1.52-0.58-2.1,0C708.4,346.13,708.4,347.07,708.98,347.65z M708.98,337.16c0.58,0.58,1.52,0.58,2.1,0
		c0.58-0.58,0.58-1.52,0-2.1s-1.52-0.58-2.1,0C708.4,335.65,708.4,336.59,708.98,337.16z M708.98,326.68c0.58,0.58,1.52,0.58,2.1,0
		c0.58-0.58,0.58-1.52,0-2.1s-1.52-0.58-2.1,0C708.4,325.16,708.4,326.1,708.98,326.68z M708.98,316.19c0.58,0.58,1.52,0.58,2.1,0
		c0.58-0.58,0.58-1.52,0-2.1c-0.58-0.58-1.52-0.58-2.1,0C708.4,314.67,708.4,315.61,708.98,316.19z M720.87,347.65
		c0.58,0.58,1.52,0.58,2.1,0c0.58-0.58,0.58-1.52,0-2.1c-0.58-0.58-1.52-0.58-2.1,0C720.29,346.13,720.29,347.07,720.87,347.65z
		 M720.87,337.16c0.58,0.58,1.52,0.58,2.1,0c0.58-0.58,0.58-1.52,0-2.1c-0.58-0.58-1.52-0.58-2.1,0S720.29,336.59,720.87,337.16z
		 M720.87,326.68c0.58,0.58,1.52,0.58,2.1,0c0.58-0.58,0.58-1.52,0-2.1c-0.58-0.58-1.52-0.58-2.1,0S720.29,326.1,720.87,326.68z
		 M720.87,316.19c0.58,0.58,1.52,0.58,2.1,0c0.58-0.58,0.58-1.52,0-2.1c-0.58-0.58-1.52-0.58-2.1,0
		C720.29,314.67,720.29,315.61,720.87,316.19z"/>
	<path class="st0" d="M106.64,457.6c0.82-0.82,2.16-0.82,2.98,0c0.82,0.82,0.82,2.16,0,2.98c-0.82,0.82-2.16,0.82-2.98,0
		C105.82,459.76,105.82,458.42,106.64,457.6z M106.64,445.66c0.82,0.82,2.16,0.82,2.98,0c0.82-0.82,0.82-2.16,0-2.98
		c-0.82-0.82-2.16-0.82-2.98,0C105.82,443.5,105.82,444.83,106.64,445.66z M106.64,430.73c0.82,0.82,2.16,0.82,2.98,0
		c0.82-0.82,0.82-2.16,0-2.98c-0.82-0.82-2.16-0.82-2.98,0C105.82,428.57,105.82,429.91,106.64,430.73z M106.64,415.81
		c0.82,0.82,2.16,0.82,2.98,0c0.82-0.82,0.82-2.16,0-2.98c-0.82-0.82-2.16-0.82-2.98,0C105.82,413.65,105.82,414.99,106.64,415.81z
		 M123.55,460.58c0.82,0.82,2.16,0.82,2.98,0c0.82-0.82,0.82-2.16,0-2.98c-0.82-0.82-2.16-0.82-2.98,0
		C122.73,458.42,122.73,459.76,123.55,460.58z M123.55,445.66c0.82,0.82,2.16,0.82,2.98,0c0.82-0.82,0.82-2.16,0-2.98
		c-0.82-0.82-2.16-0.82-2.98,0C122.73,443.5,122.73,444.83,123.55,445.66z M123.55,430.73c0.82,0.82,2.16,0.82,2.98,0
		c0.82-0.82,0.82-2.16,0-2.98c-0.82-0.82-2.16-0.82-2.98,0C122.73,428.57,122.73,429.91,123.55,430.73z M123.55,415.81
		c0.82,0.82,2.16,0.82,2.98,0c0.82-0.82,0.82-2.16,0-2.98c-0.82-0.82-2.16-0.82-2.98,0C122.73,413.65,122.73,414.99,123.55,415.81z
		 M140.47,460.58c0.82,0.82,2.16,0.82,2.98,0c0.82-0.82,0.82-2.16,0-2.98c-0.82-0.82-2.16-0.82-2.98,0
		C139.64,458.42,139.64,459.76,140.47,460.58z M140.47,445.66c0.82,0.82,2.16,0.82,2.98,0c0.82-0.82,0.82-2.16,0-2.98
		c-0.82-0.82-2.16-0.82-2.98,0S139.64,444.83,140.47,445.66z M140.47,430.73c0.82,0.82,2.16,0.82,2.98,0c0.82-0.82,0.82-2.16,0-2.98
		c-0.82-0.82-2.16-0.82-2.98,0C139.64,428.57,139.64,429.91,140.47,430.73z M140.47,415.81c0.82,0.82,2.16,0.82,2.98,0
		c0.82-0.82,0.82-2.16,0-2.98c-0.82-0.82-2.16-0.82-2.98,0C139.64,413.65,139.64,414.99,140.47,415.81z M157.38,460.58
		c0.82,0.82,2.16,0.82,2.98,0c0.82-0.82,0.82-2.16,0-2.98c-0.82-0.82-2.16-0.82-2.98,0C156.55,458.42,156.55,459.76,157.38,460.58z
		 M157.38,445.66c0.82,0.82,2.16,0.82,2.98,0c0.82-0.82,0.82-2.16,0-2.98s-2.16-0.82-2.98,0
		C156.55,443.5,156.55,444.83,157.38,445.66z M157.38,430.73c0.82,0.82,2.16,0.82,2.98,0s0.82-2.16,0-2.98
		c-0.82-0.82-2.16-0.82-2.98,0C156.55,428.57,156.55,429.91,157.38,430.73z M157.38,415.81c0.82,0.82,2.16,0.82,2.98,0
		c0.82-0.82,0.82-2.16,0-2.98c-0.82-0.82-2.16-0.82-2.98,0C156.55,413.65,156.55,414.99,157.38,415.81z M174.29,460.58
		c0.82,0.82,2.16,0.82,2.98,0c0.82-0.82,0.82-2.16,0-2.98c-0.82-0.82-2.16-0.82-2.98,0C173.47,458.42,173.47,459.76,174.29,460.58z
		 M174.29,445.66c0.82,0.82,2.16,0.82,2.98,0c0.82-0.82,0.82-2.16,0-2.98c-0.82-0.82-2.16-0.82-2.98,0
		C173.47,443.5,173.47,444.83,174.29,445.66z M174.29,430.73c0.82,0.82,2.16,0.82,2.98,0c0.82-0.82,0.82-2.16,0-2.98
		c-0.82-0.82-2.16-0.82-2.98,0C173.47,428.57,173.47,429.91,174.29,430.73z M174.29,415.81c0.82,0.82,2.16,0.82,2.98,0
		c0.82-0.82,0.82-2.16,0-2.98c-0.82-0.82-2.16-0.82-2.98,0C173.47,413.65,173.47,414.99,174.29,415.81z M191.2,460.58
		c0.82,0.82,2.16,0.82,2.98,0c0.82-0.82,0.82-2.16,0-2.98c-0.82-0.82-2.16-0.82-2.98,0C190.38,458.42,190.38,459.76,191.2,460.58z
		 M191.2,445.66c0.82,0.82,2.16,0.82,2.98,0c0.82-0.82,0.82-2.16,0-2.98c-0.82-0.82-2.16-0.82-2.98,0
		C190.38,443.5,190.38,444.83,191.2,445.66z M191.2,430.73c0.82,0.82,2.16,0.82,2.98,0c0.82-0.82,0.82-2.16,0-2.98
		c-0.82-0.82-2.16-0.82-2.98,0C190.38,428.57,190.38,429.91,191.2,430.73z M191.2,415.81c0.82,0.82,2.16,0.82,2.98,0
		c0.82-0.82,0.82-2.16,0-2.98c-0.82-0.82-2.16-0.82-2.98,0C190.38,413.65,190.38,414.99,191.2,415.81z"/>
	<path class="st0" d="M685.03,110.36c0.66-0.66,1.74-0.66,2.41,0c0.66,0.66,0.66,1.74,0,2.41c-0.66,0.66-1.74,0.66-2.41,0
		C684.37,112.1,684.37,111.03,685.03,110.36z M698.43,112.56c0.66,0.66,1.74,0.66,2.41,0c0.66-0.66,0.66-1.74,0-2.41
		c-0.66-0.66-1.74-0.66-2.41,0C697.76,110.81,697.76,111.89,698.43,112.56z M691.62,112.56c0.66,0.66,1.74,0.66,2.41,0
		c0.66-0.66,0.66-1.74,0-2.41c-0.66-0.66-1.74-0.66-2.41,0C690.96,110.81,690.96,111.89,691.62,112.56z"/>
</g>
<g id="DESIGNED_BY_FREEPIK">
</g>
</svg>
